<svg width="184" height="24" viewBox="0 0 184 24" fill="none" xmlns="http://www.w3.org/2000/svg">
<path d="M38.86 18C38.476 18 38.23 17.82 38.122 17.46L34.45 5.94L34.414 5.778C34.414 5.682 34.45 5.598 34.522 5.526C34.606 5.442 34.702 5.4 34.81 5.4H37.042C37.21 5.4 37.348 5.448 37.456 5.544C37.576 5.64 37.654 5.748 37.69 5.868L40.246 14.184L42.784 5.868C42.82 5.748 42.892 5.64 43 5.544C43.12 5.448 43.264 5.4 43.432 5.4H45.682C45.778 5.4 45.862 5.442 45.934 5.526C46.018 5.598 46.06 5.682 46.06 5.778L46.024 5.94L42.352 17.46C42.244 17.82 41.998 18 41.614 18H38.86ZM50.8957 18.18C49.4557 18.18 48.3217 17.79 47.4937 17.01C46.6657 16.23 46.2337 15.096 46.1977 13.608V12.978C46.2457 11.562 46.6837 10.458 47.5117 9.666C48.3517 8.862 49.4737 8.46 50.8777 8.46C51.8977 8.46 52.7557 8.67 53.4517 9.09C54.1597 9.498 54.6877 10.062 55.0357 10.782C55.3957 11.502 55.5757 12.33 55.5757 13.266V13.698C55.5757 13.818 55.5337 13.926 55.4497 14.022C55.3657 14.106 55.2577 14.148 55.1257 14.148H49.3657V14.274C49.3897 14.838 49.5277 15.294 49.7797 15.642C50.0317 15.99 50.3977 16.164 50.8777 16.164C51.1777 16.164 51.4237 16.104 51.6157 15.984C51.8077 15.852 51.9817 15.696 52.1377 15.516C52.2457 15.384 52.3297 15.306 52.3897 15.282C52.4617 15.246 52.5697 15.228 52.7137 15.228H54.9457C55.0537 15.228 55.1437 15.264 55.2157 15.336C55.2997 15.396 55.3417 15.48 55.3417 15.588C55.3417 15.9 55.1617 16.26 54.8017 16.668C54.4537 17.076 53.9437 17.43 53.2717 17.73C52.5997 18.03 51.8077 18.18 50.8957 18.18ZM52.4077 12.366V12.33C52.4077 11.742 52.2697 11.28 51.9937 10.944C51.7297 10.596 51.3577 10.422 50.8777 10.422C50.4097 10.422 50.0377 10.596 49.7617 10.944C49.4977 11.28 49.3657 11.742 49.3657 12.33V12.366H52.4077ZM62.016 18C59.532 18 58.29 16.818 58.29 14.454V10.998H56.886C56.754 10.998 56.64 10.956 56.544 10.872C56.46 10.788 56.418 10.68 56.418 10.548V9.09C56.418 8.958 56.46 8.85 56.544 8.766C56.64 8.682 56.754 8.64 56.886 8.64H58.29V5.67C58.29 5.538 58.332 5.43 58.416 5.346C58.512 5.262 58.62 5.22 58.74 5.22H60.828C60.96 5.22 61.068 5.262 61.152 5.346C61.236 5.43 61.278 5.538 61.278 5.67V8.64H63.528C63.66 8.64 63.768 8.682 63.852 8.766C63.948 8.85 63.996 8.958 63.996 9.09V10.548C63.996 10.68 63.948 10.788 63.852 10.872C63.768 10.956 63.66 10.998 63.528 10.998H61.278V14.202C61.278 15.09 61.62 15.534 62.304 15.534H63.69C63.822 15.534 63.93 15.576 64.014 15.66C64.098 15.744 64.14 15.852 64.14 15.984V17.55C64.14 17.67 64.098 17.778 64.014 17.874C63.93 17.958 63.822 18 63.69 18H62.016ZM69.9504 18.18C68.5104 18.18 67.3764 17.79 66.5484 17.01C65.7204 16.23 65.2884 15.096 65.2524 13.608V12.978C65.3004 11.562 65.7384 10.458 66.5664 9.666C67.4064 8.862 68.5284 8.46 69.9324 8.46C70.9524 8.46 71.8104 8.67 72.5064 9.09C73.2144 9.498 73.7424 10.062 74.0904 10.782C74.4504 11.502 74.6304 12.33 74.6304 13.266V13.698C74.6304 13.818 74.5884 13.926 74.5044 14.022C74.4204 14.106 74.3124 14.148 74.1804 14.148H68.4204V14.274C68.4444 14.838 68.5824 15.294 68.8344 15.642C69.0864 15.99 69.4524 16.164 69.9324 16.164C70.2324 16.164 70.4784 16.104 70.6704 15.984C70.8624 15.852 71.0364 15.696 71.1924 15.516C71.3004 15.384 71.3844 15.306 71.4444 15.282C71.5164 15.246 71.6244 15.228 71.7684 15.228H74.0004C74.1084 15.228 74.1984 15.264 74.2704 15.336C74.3544 15.396 74.3964 15.48 74.3964 15.588C74.3964 15.9 74.2164 16.26 73.8564 16.668C73.5084 17.076 72.9984 17.43 72.3264 17.73C71.6544 18.03 70.8624 18.18 69.9504 18.18ZM71.4624 12.366V12.33C71.4624 11.742 71.3244 11.28 71.0484 10.944C70.7844 10.596 70.4124 10.422 69.9324 10.422C69.4644 10.422 69.0924 10.596 68.8164 10.944C68.5524 11.28 68.4204 11.742 68.4204 12.33V12.366H71.4624ZM76.7679 18C76.6359 18 76.5279 17.958 76.4439 17.874C76.3599 17.79 76.3179 17.682 76.3179 17.55V9.09C76.3179 8.958 76.3599 8.85 76.4439 8.766C76.5279 8.682 76.6359 8.64 76.7679 8.64H78.8379C78.9699 8.64 79.0779 8.688 79.1619 8.784C79.2579 8.868 79.3059 8.97 79.3059 9.09V9.81C79.9659 9.03 80.8539 8.64 81.9699 8.64H82.7619C82.8939 8.64 83.0019 8.682 83.0859 8.766C83.1699 8.85 83.2119 8.958 83.2119 9.09V10.944C83.2119 11.064 83.1699 11.172 83.0859 11.268C83.0019 11.352 82.8939 11.394 82.7619 11.394H81.0159C80.5239 11.394 80.1399 11.532 79.8639 11.808C79.5999 12.072 79.4679 12.45 79.4679 12.942V17.55C79.4679 17.682 79.4199 17.79 79.3239 17.874C79.2399 17.958 79.1319 18 78.9999 18H76.7679ZM84.9237 7.29C84.7917 7.29 84.6837 7.248 84.5997 7.164C84.5157 7.08 84.4737 6.972 84.4737 6.84V5.22C84.4737 5.088 84.5157 4.98 84.5997 4.896C84.6837 4.812 84.7917 4.77 84.9237 4.77H87.0837C87.2157 4.77 87.3237 4.812 87.4077 4.896C87.4917 4.98 87.5337 5.088 87.5337 5.22V6.84C87.5337 6.972 87.4917 7.08 87.4077 7.164C87.3237 7.248 87.2157 7.29 87.0837 7.29H84.9237ZM84.9417 18C84.8097 18 84.7017 17.958 84.6177 17.874C84.5337 17.79 84.4917 17.682 84.4917 17.55V9.09C84.4917 8.958 84.5337 8.85 84.6177 8.766C84.7017 8.682 84.8097 8.64 84.9417 8.64H87.0657C87.1977 8.64 87.3057 8.682 87.3897 8.766C87.4737 8.85 87.5157 8.958 87.5157 9.09V17.55C87.5157 17.67 87.4737 17.778 87.3897 17.874C87.3057 17.958 87.1977 18 87.0657 18H84.9417ZM90.0921 18C89.9601 18 89.8521 17.958 89.7681 17.874C89.6841 17.79 89.6421 17.682 89.6421 17.55V9.09C89.6421 8.958 89.6841 8.85 89.7681 8.766C89.8521 8.682 89.9601 8.64 90.0921 8.64H92.1621C92.2941 8.64 92.4021 8.682 92.4861 8.766C92.5821 8.85 92.6301 8.958 92.6301 9.09V9.774C92.9541 9.378 93.3681 9.06 93.8721 8.82C94.3881 8.58 94.9701 8.46 95.6181 8.46C96.6741 8.46 97.5321 8.82 98.1921 9.54C98.8521 10.248 99.1821 11.244 99.1821 12.528V17.55C99.1821 17.67 99.1401 17.778 99.0561 17.874C98.9721 17.958 98.8641 18 98.7321 18H96.4641C96.3441 18 96.2361 17.958 96.1401 17.874C96.0561 17.778 96.0141 17.67 96.0141 17.55V12.636C96.0141 12.072 95.8761 11.64 95.6001 11.34C95.3241 11.028 94.9281 10.872 94.4121 10.872C93.9081 10.872 93.5121 11.028 93.2241 11.34C92.9361 11.64 92.7921 12.072 92.7921 12.636V17.55C92.7921 17.67 92.7501 17.778 92.6661 17.874C92.5821 17.958 92.4741 18 92.3421 18H90.0921ZM105.528 18.18C104.088 18.18 102.954 17.79 102.126 17.01C101.298 16.23 100.866 15.096 100.83 13.608V12.978C100.878 11.562 101.316 10.458 102.144 9.666C102.984 8.862 104.106 8.46 105.51 8.46C106.53 8.46 107.388 8.67 108.084 9.09C108.792 9.498 109.32 10.062 109.668 10.782C110.028 11.502 110.208 12.33 110.208 13.266V13.698C110.208 13.818 110.166 13.926 110.082 14.022C109.998 14.106 109.89 14.148 109.758 14.148H103.998V14.274C104.022 14.838 104.16 15.294 104.412 15.642C104.664 15.99 105.03 16.164 105.51 16.164C105.81 16.164 106.056 16.104 106.248 15.984C106.44 15.852 106.614 15.696 106.77 15.516C106.878 15.384 106.962 15.306 107.022 15.282C107.094 15.246 107.202 15.228 107.346 15.228H109.578C109.686 15.228 109.776 15.264 109.848 15.336C109.932 15.396 109.974 15.48 109.974 15.588C109.974 15.9 109.794 16.26 109.434 16.668C109.086 17.076 108.576 17.43 107.904 17.73C107.232 18.03 106.44 18.18 105.528 18.18ZM107.04 12.366V12.33C107.04 11.742 106.902 11.28 106.626 10.944C106.362 10.596 105.99 10.422 105.51 10.422C105.042 10.422 104.67 10.596 104.394 10.944C104.13 11.28 103.998 11.742 103.998 12.33V12.366H107.04ZM112.346 18C112.214 18 112.106 17.958 112.022 17.874C111.938 17.79 111.896 17.682 111.896 17.55V9.09C111.896 8.958 111.938 8.85 112.022 8.766C112.106 8.682 112.214 8.64 112.346 8.64H114.416C114.548 8.64 114.656 8.688 114.74 8.784C114.836 8.868 114.884 8.97 114.884 9.09V9.81C115.544 9.03 116.432 8.64 117.548 8.64H118.34C118.472 8.64 118.58 8.682 118.664 8.766C118.748 8.85 118.79 8.958 118.79 9.09V10.944C118.79 11.064 118.748 11.172 118.664 11.268C118.58 11.352 118.472 11.394 118.34 11.394H116.594C116.102 11.394 115.718 11.532 115.442 11.808C115.178 12.072 115.046 12.45 115.046 12.942V17.55C115.046 17.682 114.998 17.79 114.902 17.874C114.818 17.958 114.71 18 114.578 18H112.346ZM120.502 7.29C120.37 7.29 120.262 7.248 120.178 7.164C120.094 7.08 120.052 6.972 120.052 6.84V5.22C120.052 5.088 120.094 4.98 120.178 4.896C120.262 4.812 120.37 4.77 120.502 4.77H122.662C122.794 4.77 122.902 4.812 122.986 4.896C123.07 4.98 123.112 5.088 123.112 5.22V6.84C123.112 6.972 123.07 7.08 122.986 7.164C122.902 7.248 122.794 7.29 122.662 7.29H120.502ZM120.52 18C120.388 18 120.28 17.958 120.196 17.874C120.112 17.79 120.07 17.682 120.07 17.55V9.09C120.07 8.958 120.112 8.85 120.196 8.766C120.28 8.682 120.388 8.64 120.52 8.64H122.644C122.776 8.64 122.884 8.682 122.968 8.766C123.052 8.85 123.094 8.958 123.094 9.09V17.55C123.094 17.67 123.052 17.778 122.968 17.874C122.884 17.958 122.776 18 122.644 18H120.52ZM125.67 18C125.538 18 125.43 17.958 125.346 17.874C125.262 17.79 125.22 17.682 125.22 17.55V9.09C125.22 8.958 125.262 8.85 125.346 8.766C125.43 8.682 125.538 8.64 125.67 8.64H127.632C127.764 8.64 127.872 8.682 127.956 8.766C128.04 8.85 128.082 8.958 128.082 9.09V9.702C128.358 9.342 128.724 9.048 129.18 8.82C129.648 8.58 130.17 8.46 130.746 8.46C132.066 8.46 132.978 8.976 133.482 10.008C133.77 9.552 134.172 9.18 134.688 8.892C135.204 8.604 135.756 8.46 136.344 8.46C137.328 8.46 138.126 8.796 138.738 9.468C139.362 10.128 139.674 11.118 139.674 12.438V17.55C139.674 17.67 139.632 17.778 139.548 17.874C139.464 17.958 139.356 18 139.224 18H137.136C137.004 18 136.89 17.958 136.794 17.874C136.71 17.79 136.668 17.682 136.668 17.55V12.564C136.668 11.964 136.542 11.532 136.29 11.268C136.05 11.004 135.72 10.872 135.3 10.872C134.916 10.872 134.598 11.01 134.346 11.286C134.094 11.55 133.968 11.976 133.968 12.564V17.55C133.968 17.67 133.926 17.778 133.842 17.874C133.758 17.958 133.65 18 133.518 18H131.43C131.298 18 131.19 17.958 131.106 17.874C131.022 17.79 130.98 17.682 130.98 17.55V12.564C130.98 11.976 130.848 11.55 130.584 11.286C130.332 11.01 130.008 10.872 129.612 10.872C129.228 10.872 128.904 11.01 128.64 11.286C128.388 11.55 128.262 11.97 128.262 12.546V17.55C128.262 17.67 128.22 17.778 128.136 17.874C128.052 17.958 127.944 18 127.812 18H125.67ZM142.068 18C141.948 18 141.84 17.958 141.744 17.874C141.66 17.778 141.618 17.67 141.618 17.55V15.264C141.618 15.132 141.66 15.024 141.744 14.94C141.84 14.856 141.948 14.814 142.068 14.814H144.354C144.486 14.814 144.594 14.856 144.678 14.94C144.762 15.024 144.804 15.132 144.804 15.264V17.55C144.804 17.67 144.762 17.778 144.678 17.874C144.594 17.958 144.486 18 144.354 18H142.068ZM151.038 18.18C149.682 18.18 148.584 17.82 147.744 17.1C146.904 16.368 146.454 15.354 146.394 14.058L146.376 13.338L146.394 12.6C146.442 11.304 146.886 10.29 147.726 9.558C148.578 8.826 149.682 8.46 151.038 8.46C152.058 8.46 152.916 8.646 153.612 9.018C154.32 9.378 154.842 9.816 155.178 10.332C155.526 10.836 155.712 11.298 155.736 11.718C155.748 11.838 155.706 11.946 155.61 12.042C155.526 12.126 155.418 12.168 155.286 12.168H153C152.868 12.168 152.766 12.138 152.694 12.078C152.622 12.018 152.556 11.928 152.496 11.808C152.352 11.436 152.166 11.172 151.938 11.016C151.722 10.86 151.44 10.782 151.092 10.782C150.108 10.782 149.598 11.418 149.562 12.69L149.544 13.374L149.562 13.968C149.586 14.616 149.724 15.096 149.976 15.408C150.24 15.708 150.612 15.858 151.092 15.858C151.464 15.858 151.758 15.78 151.974 15.624C152.19 15.468 152.364 15.204 152.496 14.832C152.556 14.712 152.622 14.622 152.694 14.562C152.766 14.502 152.868 14.472 153 14.472H155.286C155.406 14.472 155.508 14.514 155.592 14.598C155.688 14.67 155.736 14.766 155.736 14.886C155.736 15.27 155.568 15.72 155.232 16.236C154.908 16.752 154.392 17.208 153.684 17.604C152.976 17.988 152.094 18.18 151.038 18.18ZM161.781 18.18C160.293 18.18 159.147 17.826 158.343 17.118C157.539 16.41 157.101 15.414 157.029 14.13C157.017 13.974 157.011 13.704 157.011 13.32C157.011 12.936 157.017 12.666 157.029 12.51C157.101 11.238 157.551 10.248 158.379 9.54C159.207 8.82 160.341 8.46 161.781 8.46C163.233 8.46 164.373 8.82 165.201 9.54C166.029 10.248 166.479 11.238 166.551 12.51C166.563 12.666 166.569 12.936 166.569 13.32C166.569 13.704 166.563 13.974 166.551 14.13C166.479 15.414 166.041 16.41 165.237 17.118C164.433 17.826 163.281 18.18 161.781 18.18ZM161.781 15.984C162.309 15.984 162.699 15.828 162.951 15.516C163.203 15.192 163.347 14.7 163.383 14.04C163.395 13.92 163.401 13.68 163.401 13.32C163.401 12.96 163.395 12.72 163.383 12.6C163.347 11.952 163.197 11.466 162.933 11.142C162.681 10.818 162.297 10.656 161.781 10.656C160.785 10.656 160.257 11.304 160.197 12.6L160.179 13.32L160.197 14.04C160.221 14.7 160.359 15.192 160.611 15.516C160.875 15.828 161.265 15.984 161.781 15.984ZM168.807 18C168.675 18 168.567 17.958 168.483 17.874C168.399 17.79 168.357 17.682 168.357 17.55V9.09C168.357 8.958 168.399 8.85 168.483 8.766C168.567 8.682 168.675 8.64 168.807 8.64H170.769C170.901 8.64 171.009 8.682 171.093 8.766C171.177 8.85 171.219 8.958 171.219 9.09V9.702C171.495 9.342 171.861 9.048 172.317 8.82C172.785 8.58 173.307 8.46 173.883 8.46C175.203 8.46 176.115 8.976 176.619 10.008C176.907 9.552 177.309 9.18 177.825 8.892C178.341 8.604 178.893 8.46 179.481 8.46C180.465 8.46 181.263 8.796 181.875 9.468C182.499 10.128 182.811 11.118 182.811 12.438V17.55C182.811 17.67 182.769 17.778 182.685 17.874C182.601 17.958 182.493 18 182.361 18H180.273C180.141 18 180.027 17.958 179.931 17.874C179.847 17.79 179.805 17.682 179.805 17.55V12.564C179.805 11.964 179.679 11.532 179.427 11.268C179.187 11.004 178.857 10.872 178.437 10.872C178.053 10.872 177.735 11.01 177.483 11.286C177.231 11.55 177.105 11.976 177.105 12.564V17.55C177.105 17.67 177.063 17.778 176.979 17.874C176.895 17.958 176.787 18 176.655 18H174.567C174.435 18 174.327 17.958 174.243 17.874C174.159 17.79 174.117 17.682 174.117 17.55V12.564C174.117 11.976 173.985 11.55 173.721 11.286C173.469 11.01 173.145 10.872 172.749 10.872C172.365 10.872 172.041 11.01 171.777 11.286C171.525 11.55 171.399 11.97 171.399 12.546V17.55C171.399 17.67 171.357 17.778 171.273 17.874C171.189 17.958 171.081 18 170.949 18H168.807Z" fill="black"/>
<path d="M14.6393 9.89935C13.6591 9.89935 12.7376 10.3155 12.0022 11.0682C11.269 10.3078 10.3581 9.89935 9.36026 9.89935C7.61801 9.89935 6.07894 11.1631 5.61761 12.9726C5.37587 13.9204 5.32531 15.429 6.4565 17.233C7.46687 18.8441 9.20227 20.3283 11.6144 21.6441C11.7344 21.7096 11.8666 21.7422 11.9991 21.7422C12.1314 21.7422 12.2639 21.7096 12.3838 21.6442C14.7966 20.3284 16.5326 18.8442 17.5434 17.2331C18.6751 15.4291 18.6247 13.9206 18.383 12.9728C17.9215 11.1631 16.3821 9.89935 14.6393 9.89935ZM11.999 20.0189C6.72631 17.006 6.96795 14.1787 7.17435 13.3695C7.44963 12.2897 8.36896 11.506 9.36015 11.506C10.1142 11.506 10.8074 11.9649 11.3118 12.7981C11.4573 13.0384 11.7179 13.1853 11.9989 13.1854C11.9989 13.1854 11.9989 13.1854 11.999 13.1854C12.28 13.1854 12.5406 13.0387 12.686 12.7984C13.1911 11.965 13.8846 11.506 14.6392 11.506C15.631 11.506 16.5507 12.2897 16.826 13.3695C17.0324 14.1786 17.2736 17.0058 11.999 20.0189Z" fill="#FD0808"/>
<path d="M8.53437 8.52201C10.2614 8.52201 11.6665 7.11704 11.6665 5.3901C11.6665 3.66295 10.2614 2.25787 8.53437 2.25787C6.80722 2.25787 5.40204 3.66305 5.40204 5.3901C5.40204 7.11704 6.80722 8.52201 8.53437 8.52201ZM8.53437 3.86453C9.37562 3.86453 10.0598 4.54896 10.0598 5.3901C10.0598 6.23113 9.37551 6.91535 8.53437 6.91535C7.69313 6.91535 7.00869 6.23113 7.00869 5.3901C7.00869 4.54886 7.69302 3.86453 8.53437 3.86453Z" fill="#FD0808"/>
<path d="M15.4662 8.52201C17.1933 8.52201 18.5983 7.11704 18.5983 5.3901C18.5983 3.66295 17.1933 2.25787 15.4662 2.25787C13.7392 2.25787 12.3341 3.66305 12.3341 5.3901C12.334 7.11704 13.7391 8.52201 15.4662 8.52201ZM15.4662 3.86453C16.3074 3.86453 16.9917 4.54896 16.9917 5.3901C16.9917 6.23113 16.3074 6.91535 15.4662 6.91535C14.625 6.91535 13.9408 6.23113 13.9408 5.3901C13.9407 4.54886 14.625 3.86453 15.4662 3.86453Z" fill="#FD0808"/>
<path d="M2.89905 7.00714C1.30053 7.00714 0 8.30778 0 9.90651C0 11.505 1.30053 12.8054 2.89905 12.8054C4.49778 12.8054 5.79831 11.5049 5.79831 9.90651C5.79842 8.30778 4.49778 7.00714 2.89905 7.00714ZM2.89905 11.1988C2.18644 11.1988 1.60666 10.6191 1.60666 9.90651C1.60666 9.1938 2.18644 8.6139 2.89905 8.6139C3.61176 8.6139 4.19166 9.1938 4.19166 9.90651C4.19176 10.6191 3.61187 11.1988 2.89905 11.1988Z" fill="#FD0808"/>
<path d="M21.1007 7.00714C19.5021 7.00714 18.2017 8.30778 18.2017 9.9064C18.2017 11.5049 19.5022 12.8053 21.1007 12.8053C22.6995 12.8053 24 11.5048 24 9.9064C24 8.30778 22.6995 7.00714 21.1007 7.00714ZM21.1007 11.1988C20.3881 11.1988 19.8083 10.619 19.8083 9.90651C19.8083 9.1938 20.3881 8.6139 21.1007 8.6139C21.8135 8.6139 22.3933 9.1938 22.3933 9.90651C22.3933 10.6191 21.8135 11.1988 21.1007 11.1988Z" fill="#FD0808"/>
</svg>
