<svg width="652" height="570" viewBox="0 0 652 570" fill="none" xmlns="http://www.w3.org/2000/svg">
<g clip-path="url(#clip0)">
<path d="M228.626 181.171C227.99 175.872 224.743 171.322 219.939 168.998C215.136 166.675 209.552 166.954 205.004 169.744L194.043 176.468C192.224 177.583 190.842 179.22 190.047 181.199C189.251 183.179 189.117 185.317 189.658 187.381C190.201 189.445 191.369 191.241 193.034 192.575C194.7 193.909 196.709 194.655 198.842 194.733L198.985 194.738C204.334 194.972 209.383 197.436 212.859 201.514C213.755 202.565 214.839 203.402 216.057 203.991C216.719 204.311 217.421 204.558 218.154 204.727C220.234 205.205 222.366 205.006 224.322 204.15C226.276 203.294 227.87 201.862 228.929 200.009C229.988 198.156 230.413 196.057 230.159 193.938L228.626 181.171Z" fill="black" fill-opacity="0.05"/>
<path d="M200.446 167.523C202.65 167.709 204.786 166.894 206.461 165.229C208.056 163.645 209.043 161.464 209.241 159.087C209.438 156.71 208.825 154.396 207.515 152.57C206.139 150.651 204.168 149.494 201.966 149.311C197.539 148.941 193.595 152.725 193.173 157.749C192.842 161.75 194.845 165.346 197.911 166.829C198.694 167.208 199.546 167.449 200.446 167.523Z" fill="black" fill-opacity="0.05"/>
<path d="M216.26 165.752C220.927 168.009 226.815 165.52 229.387 160.204C231.959 154.886 230.256 148.724 225.589 146.466C220.923 144.209 215.035 146.699 212.462 152.017C209.891 157.333 211.594 163.495 216.26 165.752Z" fill="black" fill-opacity="0.05"/>
<path d="M229.73 175.19L229.73 175.191C230.333 175.776 231.01 176.244 231.739 176.597C235.142 178.243 239.657 177.37 242.764 174.176C244.552 172.337 245.625 169.997 245.784 167.587C245.951 165.065 245.11 162.768 243.415 161.12C241.72 159.472 239.401 158.695 236.884 158.932C234.479 159.159 232.17 160.297 230.382 162.136C226.61 166.015 226.317 171.871 229.73 175.19Z" fill="black" fill-opacity="0.05"/>
<path d="M248.096 182.686L248.095 182.684C246.027 178.75 240.716 177.453 236.254 179.792C231.795 182.135 229.845 187.241 231.907 191.174C232.659 192.609 233.843 193.694 235.26 194.379C237.73 195.574 240.909 195.556 243.748 194.069C248.208 191.726 250.158 186.62 248.096 182.686Z" fill="black" fill-opacity="0.05"/>
</g>
<g clip-path="url(#clip1)">
<path d="M443.626 115.171C442.99 109.872 439.743 105.322 434.939 102.998C430.136 100.675 424.552 100.954 420.004 103.744L409.043 110.468C407.224 111.583 405.843 113.22 405.047 115.199C404.251 117.179 404.117 119.317 404.659 121.381C405.201 123.445 406.369 125.241 408.034 126.575C409.7 127.909 411.709 128.655 413.842 128.733L413.985 128.738C419.334 128.972 424.383 131.436 427.859 135.514C428.755 136.565 429.84 137.402 431.057 137.991C431.719 138.311 432.421 138.558 433.154 138.727C435.234 139.205 437.366 139.006 439.322 138.15C441.276 137.294 442.87 135.862 443.929 134.009C444.988 132.156 445.413 130.057 445.159 127.938L443.626 115.171Z" fill="black" fill-opacity="0.05"/>
<path d="M415.446 101.523C417.65 101.709 419.786 100.894 421.461 99.2293C423.056 97.6455 424.043 95.4642 424.241 93.0867C424.438 90.7102 423.825 88.396 422.515 86.5695C421.139 84.6513 419.168 83.4937 416.966 83.3114C412.539 82.9409 408.595 86.725 408.173 91.7492C407.842 95.7504 409.845 99.3461 412.911 100.829C413.694 101.208 414.546 101.449 415.446 101.523Z" fill="black" fill-opacity="0.05"/>
<path d="M431.26 99.7518C435.927 102.009 441.815 99.5203 444.387 94.2039C446.959 88.8862 445.256 82.7236 440.589 80.4663C435.924 78.2093 430.035 80.6991 427.463 86.0169C424.891 91.3333 426.594 97.4947 431.26 99.7518Z" fill="black" fill-opacity="0.05"/>
<path d="M444.73 109.19L444.73 109.191C445.333 109.776 446.01 110.244 446.739 110.597C450.142 112.243 454.657 111.37 457.764 108.176C459.552 106.337 460.625 103.997 460.784 101.587C460.951 99.0646 460.11 96.7679 458.415 95.1199C456.72 93.4717 454.401 92.6952 451.884 92.9323C449.479 93.1588 447.17 94.2967 445.382 96.1358C441.61 100.015 441.317 105.871 444.73 109.19Z" fill="black" fill-opacity="0.05"/>
<path d="M463.096 116.686L463.095 116.684C461.027 112.75 455.716 111.453 451.254 113.792C446.795 116.135 444.845 121.241 446.907 125.174C447.659 126.609 448.843 127.694 450.26 128.379C452.73 129.574 455.909 129.556 458.748 128.069C463.208 125.726 465.158 120.62 463.096 116.686Z" fill="black" fill-opacity="0.05"/>
</g>
<g clip-path="url(#clip2)">
<path d="M582.626 217.171C581.99 211.872 578.743 207.322 573.939 204.998C569.136 202.675 563.553 202.954 559.004 205.744L548.043 212.468C546.224 213.583 544.843 215.22 544.047 217.199C543.251 219.179 543.117 221.317 543.659 223.381C544.201 225.445 545.369 227.241 547.034 228.575C548.7 229.909 550.709 230.655 552.842 230.733L552.985 230.738C558.334 230.972 563.383 233.436 566.859 237.514C567.755 238.565 568.84 239.402 570.057 239.991C570.719 240.311 571.421 240.558 572.154 240.727C574.234 241.205 576.366 241.006 578.322 240.15C580.276 239.294 581.87 237.862 582.929 236.009C583.988 234.156 584.413 232.057 584.159 229.938L582.626 217.171Z" fill="black" fill-opacity="0.05"/>
<path d="M554.446 203.523C556.65 203.709 558.786 202.894 560.461 201.229C562.056 199.645 563.043 197.464 563.241 195.087C563.438 192.71 562.825 190.396 561.515 188.57C560.139 186.651 558.168 185.494 555.966 185.311C551.539 184.941 547.595 188.725 547.173 193.749C546.842 197.75 548.845 201.346 551.911 202.829C552.694 203.208 553.546 203.449 554.446 203.523Z" fill="black" fill-opacity="0.05"/>
<path d="M570.26 201.752C574.927 204.009 580.815 201.52 583.387 196.204C585.959 190.886 584.256 184.724 579.589 182.466C574.924 180.209 569.035 182.699 566.463 188.017C563.891 193.333 565.594 199.495 570.26 201.752Z" fill="black" fill-opacity="0.05"/>
<path d="M583.73 211.19L583.73 211.191C584.333 211.776 585.01 212.244 585.739 212.597C589.142 214.243 593.657 213.37 596.764 210.176C598.552 208.337 599.625 205.997 599.784 203.587C599.951 201.065 599.11 198.768 597.415 197.12C595.72 195.472 593.401 194.695 590.884 194.932C588.479 195.159 586.17 196.297 584.382 198.136C580.61 202.015 580.317 207.871 583.73 211.19Z" fill="black" fill-opacity="0.05"/>
<path d="M602.096 218.686L602.095 218.684C600.027 214.75 594.716 213.453 590.254 215.792C585.795 218.135 583.845 223.241 585.907 227.174C586.659 228.609 587.843 229.694 589.26 230.379C591.73 231.574 594.909 231.556 597.748 230.069C602.208 227.726 604.158 222.62 602.096 218.686Z" fill="black" fill-opacity="0.05"/>
</g>
<g clip-path="url(#clip3)">
<path d="M573.626 472.171C572.99 466.873 569.743 462.322 564.939 459.998C560.136 457.675 554.553 457.954 550.004 460.744L539.043 467.468C537.224 468.583 535.843 470.22 535.047 472.199C534.251 474.179 534.117 476.317 534.659 478.381C535.201 480.445 536.369 482.241 538.034 483.575C539.7 484.909 541.709 485.655 543.842 485.733L543.985 485.738C549.334 485.972 554.383 488.436 557.859 492.514C558.755 493.565 559.84 494.402 561.057 494.991C561.719 495.311 562.421 495.558 563.154 495.727C565.234 496.205 567.366 496.006 569.322 495.15C571.276 494.294 572.87 492.862 573.929 491.009C574.988 489.156 575.413 487.057 575.159 484.938L573.626 472.171Z" fill="black" fill-opacity="0.05"/>
<path d="M545.446 458.523C547.65 458.709 549.786 457.894 551.461 456.229C553.056 454.645 554.043 452.464 554.241 450.087C554.438 447.71 553.825 445.396 552.515 443.57C551.139 441.651 549.168 440.494 546.966 440.311C542.539 439.941 538.595 443.725 538.173 448.749C537.842 452.75 539.845 456.346 542.911 457.829C543.694 458.208 544.546 458.449 545.446 458.523Z" fill="black" fill-opacity="0.05"/>
<path d="M561.26 456.752C565.927 459.009 571.815 456.52 574.387 451.204C576.959 445.886 575.256 439.724 570.589 437.466C565.924 435.209 560.035 437.699 557.463 443.017C554.891 448.333 556.594 454.495 561.26 456.752Z" fill="black" fill-opacity="0.05"/>
<path d="M574.73 466.19L574.73 466.191C575.333 466.776 576.01 467.244 576.739 467.597C580.142 469.243 584.657 468.37 587.764 465.176C589.552 463.337 590.625 460.997 590.784 458.587C590.951 456.065 590.11 453.768 588.415 452.12C586.72 450.472 584.401 449.695 581.884 449.932C579.479 450.159 577.17 451.297 575.382 453.136C571.61 457.015 571.317 462.871 574.73 466.19Z" fill="black" fill-opacity="0.05"/>
<path d="M593.096 473.686L593.095 473.684C591.027 469.75 585.716 468.453 581.254 470.792C576.795 473.135 574.845 478.241 576.907 482.174C577.659 483.609 578.843 484.694 580.26 485.379C582.73 486.574 585.909 486.556 588.748 485.069C593.208 482.726 595.158 477.62 593.096 473.686Z" fill="black" fill-opacity="0.05"/>
</g>
<g clip-path="url(#clip4)">
<path d="M485.626 340.171C484.99 334.873 481.743 330.322 476.939 327.998C472.136 325.675 466.553 325.954 462.004 328.744L451.043 335.468C449.224 336.583 447.843 338.22 447.047 340.199C446.251 342.179 446.117 344.317 446.659 346.381C447.201 348.445 448.369 350.241 450.034 351.575C451.7 352.909 453.709 353.655 455.842 353.733L455.985 353.738C461.334 353.972 466.383 356.436 469.859 360.514C470.755 361.565 471.84 362.402 473.057 362.991C473.719 363.311 474.421 363.558 475.154 363.727C477.234 364.205 479.366 364.006 481.322 363.15C483.276 362.294 484.87 360.862 485.929 359.009C486.988 357.156 487.413 355.057 487.159 352.938L485.626 340.171Z" fill="black" fill-opacity="0.05"/>
<path d="M457.446 326.523C459.65 326.709 461.786 325.894 463.461 324.229C465.056 322.645 466.043 320.464 466.241 318.087C466.438 315.71 465.825 313.396 464.515 311.57C463.139 309.651 461.168 308.494 458.966 308.311C454.539 307.941 450.595 311.725 450.173 316.749C449.842 320.75 451.845 324.346 454.911 325.829C455.694 326.208 456.546 326.449 457.446 326.523Z" fill="black" fill-opacity="0.05"/>
<path d="M473.26 324.752C477.927 327.009 483.815 324.52 486.387 319.204C488.959 313.886 487.256 307.724 482.589 305.466C477.924 303.209 472.035 305.699 469.463 311.017C466.891 316.333 468.594 322.495 473.26 324.752Z" fill="black" fill-opacity="0.05"/>
<path d="M486.73 334.19L486.73 334.191C487.333 334.776 488.01 335.244 488.739 335.597C492.142 337.243 496.657 336.37 499.764 333.176C501.552 331.337 502.625 328.997 502.784 326.587C502.951 324.065 502.11 321.768 500.415 320.12C498.72 318.472 496.401 317.695 493.884 317.932C491.479 318.159 489.17 319.297 487.382 321.136C483.61 325.015 483.317 330.871 486.73 334.19Z" fill="black" fill-opacity="0.05"/>
<path d="M505.096 341.686L505.095 341.684C503.027 337.75 497.716 336.453 493.254 338.792C488.795 341.135 486.845 346.241 488.907 350.174C489.659 351.609 490.843 352.694 492.26 353.379C494.73 354.574 497.909 354.556 500.748 353.069C505.208 350.726 507.158 345.62 505.096 341.686Z" fill="black" fill-opacity="0.05"/>
</g>
<g clip-path="url(#clip5)">
<path d="M51.6261 355.171C50.99 349.873 47.7428 345.322 42.9394 342.998C38.136 340.675 32.5525 340.954 28.004 343.744L17.0429 350.468C15.2244 351.583 13.8425 353.22 13.047 355.199C12.2514 357.179 12.1174 359.317 12.6585 361.381C13.2011 363.445 14.3685 365.241 16.0344 366.575C17.7002 367.909 19.7086 368.655 21.8418 368.733L21.9849 368.738C27.3336 368.972 32.383 371.436 35.8587 375.514C36.7554 376.565 37.8395 377.402 39.0571 377.991C39.719 378.311 40.4213 378.558 41.1538 378.727C43.2336 379.205 45.3664 379.006 47.322 378.15C49.2764 377.294 50.8696 375.862 51.9287 374.009C52.9878 372.156 53.4131 370.057 53.1591 367.938L51.6261 355.171Z" fill="black" fill-opacity="0.05"/>
<path d="M23.4458 341.523C25.6496 341.709 27.7859 340.894 29.4611 339.229C31.0556 337.645 32.0429 335.464 32.2411 333.087C32.4382 330.71 31.8252 328.396 30.5152 326.57C29.139 324.651 27.1675 323.494 24.9662 323.311C20.5393 322.941 16.595 326.725 16.1732 331.749C15.8421 335.75 17.8448 339.346 20.9107 340.829C21.6935 341.208 22.5458 341.449 23.4458 341.523Z" fill="black" fill-opacity="0.05"/>
<path d="M39.2603 339.752C43.9266 342.009 49.8153 339.52 52.3871 334.204C54.9594 328.886 53.2557 322.724 48.5894 320.466C43.9235 318.209 38.0348 320.699 35.4625 326.017C32.8907 331.333 34.5945 337.495 39.2603 339.752Z" fill="black" fill-opacity="0.05"/>
<path d="M52.7296 349.19L52.7301 349.191C53.3326 349.776 54.0099 350.244 54.7391 350.597C58.1421 352.243 62.6567 351.37 65.7635 348.176C67.5523 346.337 68.6251 343.997 68.7842 341.587C68.9512 339.065 68.11 336.768 66.4154 335.12C64.7204 333.472 62.4008 332.695 59.8837 332.932C57.4792 333.159 55.1703 334.297 53.3824 336.136C49.6102 340.015 49.3174 345.871 52.7296 349.19Z" fill="black" fill-opacity="0.05"/>
<path d="M71.0957 356.686L71.095 356.684C69.0269 352.75 63.7159 351.453 59.2543 353.792C54.7946 356.135 52.8447 361.241 54.9071 365.174C55.659 366.609 56.8428 367.694 58.26 368.379C60.7298 369.574 63.9093 369.556 66.7485 368.069C71.2078 365.726 73.1581 360.62 71.0957 356.686Z" fill="black" fill-opacity="0.05"/>
</g>
<g clip-path="url(#clip6)">
<path d="M131.626 533.171C130.99 527.873 127.743 523.322 122.939 520.998C118.136 518.675 112.552 518.954 108.004 521.744L97.0429 528.468C95.2244 529.583 93.8425 531.22 93.047 533.199C92.2514 535.179 92.1174 537.317 92.6585 539.381C93.2011 541.445 94.3685 543.241 96.0344 544.575C97.7002 545.909 99.7086 546.655 101.842 546.733L101.985 546.738C107.334 546.972 112.383 549.436 115.859 553.514C116.755 554.565 117.839 555.402 119.057 555.991C119.719 556.311 120.421 556.558 121.154 556.727C123.234 557.205 125.366 557.006 127.322 556.15C129.276 555.294 130.87 553.862 131.929 552.009C132.988 550.156 133.413 548.057 133.159 545.938L131.626 533.171Z" fill="black" fill-opacity="0.05"/>
<path d="M103.446 519.523C105.65 519.709 107.786 518.894 109.461 517.229C111.056 515.645 112.043 513.464 112.241 511.087C112.438 508.71 111.825 506.396 110.515 504.57C109.139 502.651 107.168 501.494 104.966 501.311C100.539 500.941 96.595 504.725 96.1732 509.749C95.8421 513.75 97.8448 517.346 100.911 518.829C101.694 519.208 102.546 519.449 103.446 519.523Z" fill="black" fill-opacity="0.05"/>
<path d="M119.26 517.752C123.927 520.009 129.815 517.52 132.387 512.204C134.959 506.886 133.256 500.724 128.589 498.466C123.924 496.209 118.035 498.699 115.462 504.017C112.891 509.333 114.594 515.495 119.26 517.752Z" fill="black" fill-opacity="0.05"/>
<path d="M132.73 527.19L132.73 527.191C133.333 527.776 134.01 528.244 134.739 528.597C138.142 530.243 142.657 529.37 145.764 526.176C147.552 524.337 148.625 521.997 148.784 519.587C148.951 517.065 148.11 514.768 146.415 513.12C144.72 511.472 142.401 510.695 139.884 510.932C137.479 511.159 135.17 512.297 133.382 514.136C129.61 518.015 129.317 523.871 132.73 527.19Z" fill="black" fill-opacity="0.05"/>
<path d="M151.096 534.686L151.095 534.684C149.027 530.75 143.716 529.453 139.254 531.792C134.795 534.135 132.845 539.241 134.907 543.174C135.659 544.609 136.843 545.694 138.26 546.379C140.73 547.574 143.909 547.556 146.748 546.069C151.208 543.726 153.158 538.62 151.096 534.686Z" fill="black" fill-opacity="0.05"/>
</g>
<g clip-path="url(#clip7)">
<path d="M658.626 49.1709C657.99 43.8725 654.743 39.3217 649.939 36.9981C645.136 34.6745 639.553 34.9536 635.004 37.7441L624.043 44.4676C622.224 45.5829 620.843 47.2196 620.047 49.1992C619.251 51.1793 619.117 53.3166 619.659 55.3813C620.201 57.4452 621.369 59.2412 623.034 60.5753C624.7 61.9094 626.709 62.6553 628.842 62.7331L628.985 62.7378C634.334 62.9721 639.383 65.4364 642.859 69.5136C643.755 70.5652 644.84 71.402 646.057 71.991C646.719 72.3112 647.421 72.5582 648.154 72.727C650.234 73.2053 652.366 73.0057 654.322 72.1498C656.276 71.2939 657.87 69.8619 658.929 68.0087C659.988 66.1556 660.413 64.0566 660.159 61.9377L658.626 49.1709Z" fill="black" fill-opacity="0.05"/>
<path d="M630.446 35.5234C632.65 35.7086 634.786 34.894 636.461 33.2293C638.056 31.6455 639.043 29.4642 639.241 27.0867C639.438 24.7102 638.825 22.396 637.515 20.5695C636.139 18.6513 634.168 17.4937 631.966 17.3114C627.539 16.9409 623.595 20.725 623.173 25.7492C622.842 29.7504 624.845 33.3461 627.911 34.8292C628.694 35.2079 629.546 35.4487 630.446 35.5234Z" fill="black" fill-opacity="0.05"/>
<path d="M646.26 33.7518C650.927 36.009 656.815 33.5203 659.387 28.2039C661.959 22.8862 660.256 16.7236 655.589 14.4663C650.924 12.2093 645.035 14.6991 642.463 20.0169C639.891 25.3333 641.594 31.4947 646.26 33.7518Z" fill="black" fill-opacity="0.05"/>
</g>
<defs>
<clipPath id="clip0">
<rect width="64" height="64" fill="white" transform="translate(204.87 132) rotate(25.8147)"/>
</clipPath>
<clipPath id="clip1">
<rect width="64" height="64" fill="white" transform="translate(419.87 66) rotate(25.8147)"/>
</clipPath>
<clipPath id="clip2">
<rect width="64" height="64" fill="white" transform="translate(558.87 168) rotate(25.8147)"/>
</clipPath>
<clipPath id="clip3">
<rect width="64" height="64" fill="white" transform="translate(549.87 423) rotate(25.8147)"/>
</clipPath>
<clipPath id="clip4">
<rect width="64" height="64" fill="white" transform="translate(461.87 291) rotate(25.8147)"/>
</clipPath>
<clipPath id="clip5">
<rect width="64" height="64" fill="white" transform="translate(27.8696 306) rotate(25.8147)"/>
</clipPath>
<clipPath id="clip6">
<rect width="64" height="64" fill="white" transform="translate(107.87 484) rotate(25.8147)"/>
</clipPath>
<clipPath id="clip7">
<rect width="64" height="64" fill="white" transform="translate(634.87) rotate(25.8147)"/>
</clipPath>
</defs>
</svg>
